<?xml version="1.0" encoding="UTF-8" standalone="no"?>
<svg width="200px" height="30px" viewBox="0 0 200 30" version="1.1" xmlns="http://www.w3.org/2000/svg" xmlns:xlink="http://www.w3.org/1999/xlink" xmlns:sketch="http://www.bohemiancoding.com/sketch/ns">
    <!-- Generator: Sketch 3.2.2 (9983) - http://www.bohemiancoding.com/sketch -->
    <title>OW-Logo</title>
    <desc>Created with Sketch.</desc>
    <defs></defs>
    <g id="Icons" stroke="none" stroke-width="1" fill="none" fill-rule="evenodd" sketch:type="MSPage">
        <g id="OW-Logo" sketch:type="MSArtboardGroup" fill="#FFFFFF">
            <path d="M3.42700271,14.8592688 C3.42700271,8.54456487 8.56446326,3.4248625 14.9010704,3.4248625 C21.2376776,3.4248625 26.3751381,8.54456487 26.3751381,14.8592688 C26.3751381,21.1739728 21.2376776,26.2942818 14.9010704,26.2942818 C8.56446326,26.2942818 3.42700271,21.1739728 3.42700271,14.8592688 L3.42700271,14.8592688 Z M0,14.8592688 C0,23.0598916 6.67139427,29.7094387 14.9010704,29.7094387 C23.1307465,29.7094387 29.8021408,23.0598916 29.8021408,14.8592688 C29.8021408,6.65803947 23.1307465,0.00970559689 14.9010704,0.00970559689 C6.67139427,0.00970559689 0,6.65803947 0,14.8592688 Z M65.8556702,16.2180524 L65.8556702,29.2660142 L79.3384606,29.2660142 L79.3384606,26.3058072 L69.2583248,26.3058072 L69.2583248,15.9147525 L78.1880104,15.9147525 L78.1880104,12.9545455 L69.2583248,12.9545455 L69.2583248,3.4248625 L78.9306291,3.4248625 L78.9306291,0.464655451 L65.8556702,0.464655451 L65.8556702,16.2180524 Z M82.3271966,14.7500809 C82.3271966,24.4071498 89.3942484,29.6967001 97.538706,29.6967001 C98.6891562,29.6967001 99.8456936,29.6305807 100.996144,29.4904562 C101.890939,29.3509382 102.858778,29.1386283 103.528352,28.9323843 C103.49183,28.1983986 103.412698,26.8026124 103.376176,25.9054513 L103.339654,25.9054513 C102.779646,26.0928907 102.29877,26.2815432 101.70224,26.3961906 C100.624835,26.6212391 99.3952527,26.736493 97.9830598,26.736493 C91.1412284,26.736493 86.0828994,21.92555 86.0828994,14.8289389 C86.0828994,7.5012132 90.8794858,2.99417664 98.3969784,2.99417664 C99.7300398,2.99417664 100.923099,3.1094306 101.854416,3.29747654 C102.444859,3.40666451 102.968344,3.52191847 103.44922,3.67356842 L103.564874,3.67356842 C103.63731,2.71514073 103.63731,1.53227111 103.674441,0.592041411 C103.077911,0.452523455 102.037027,0.276609511 101.184842,0.173487544 C100.478746,0.100695568 99.5474287,0.0339695891 98.2448024,0.0339695891 C89.0959835,0.0339695891 82.3271966,5.51156584 82.3271966,14.7136849 L82.3271966,14.7500809 Z M114.722416,16.3333064 L114.722416,29.2775396 L118.12507,29.2775396 L118.12507,3.4248625 L126.750404,3.4248625 L126.750404,0.464655451 L106.090995,0.464655451 L106.090995,3.4248625 L114.722416,3.4248625 L114.722416,16.3333064 Z M158.596572,11.8747978 C160.879212,2.43003882 161.339392,0.852879327 161.408176,0.56171142 L161.408176,0.452523455 L158.280655,0.452523455 L158.280655,0.56171142 C158.211872,0.816483339 157.792475,2.43003882 155.682098,11.183274 C154.980871,14.331527 154.204774,17.516176 153.502939,20.8834115 L153.468851,20.8834115 C152.663536,18.5049337 151.783959,16.0906665 150.059501,11.292462 C148.725831,8.10781301 147.253985,4.33476221 145.810748,0.707295374 L145.426047,0.707295374 C143.948114,4.3711582 142.332614,8.14420899 141.142598,11.183274 C139.348748,16.1634584 138.503867,18.3957457 137.664464,21.0283889 L137.595072,21.0283889 C136.819583,17.552572 136.330185,15.4294727 135.272867,11.0740861 C133.133273,2.43003882 132.673701,0.816483339 132.639614,0.525315432 L132.639614,0.452523455 L129.271047,0.452523455 L129.271047,0.525315432 C129.339222,0.852879327 129.655139,2.46643481 132.076563,11.8747978 L136.605928,29.7094387 L137.03263,29.7094387 C143.775851,12.5723876 144.862387,9.56971854 145.494222,7.55580718 L145.529527,7.55580718 C146.091969,9.53332255 147.144418,12.5359916 153.784768,29.7094387 L154.23947,29.7094387 L158.596572,11.8747978 Z M47.2475933,21.1072468 C47.2475933,17.2735361 44.5814704,14.8289389 41.4588197,14.337593 L41.4588197,14.264801 C44.3866852,13.5550793 46.3832339,11.146878 46.3832339,7.89550307 C46.3832339,3.46125849 43.5223257,1.78097703 41.9153476,1.15617923 C40.7040269,0.71942737 38.9996561,0.464655451 37.3318075,0.464655451 C36.3822295,0.464655451 34.8909051,0.50105144 33.93524,0.537447428 C33.4787121,0.573843416 32.9065305,0.610239405 32.5960915,0.646635393 L32.5960915,29.0840343 C33.1317509,29.1204303 33.7465418,29.1562197 34.1300252,29.1932223 C34.9335143,29.2290116 35.6943941,29.2660142 36.4978832,29.2660142 C39.7544489,29.2660142 41.9518698,28.8353284 43.558848,27.9314947 C45.7380078,26.5545131 47.2475933,24.2002993 47.2475933,21.1436428 L47.2475933,21.1072468 Z M42.9744923,8.113879 C42.9744923,10.5888062 41.2335992,12.1780977 39.4866192,12.6573115 C38.6953042,12.8817535 37.8613799,12.9909414 36.9118019,12.9909414 C36.6074499,12.9909414 36.2300535,12.9909414 36.0048331,12.9545455 L36.0048331,3.49765448 C36.3457073,3.46125849 37.1005001,3.4248625 37.7092039,3.4248625 C40.5883731,3.4248625 42.9744923,4.97775801 42.9744923,8.07748302 L42.9744923,8.113879 L42.9744923,8.113879 Z M43.8388517,21.0350615 C43.8388517,23.80055 41.7875197,25.2327321 40.6918528,25.7113394 C39.7422748,26.1177612 38.4944319,26.3058072 37.3926779,26.3058072 C36.9544111,26.3058072 36.5526666,26.3058072 36.0413553,26.2269492 C36.0048331,26.2269492 36.0048331,26.2269492 36.0048331,26.1911598 L36.0048331,15.9147525 C36.3700554,15.9147525 37.0639778,15.8722905 37.4292001,15.8722905 C38.3118207,15.8722905 39.4805321,16.0603365 40.3631527,16.3151084 C42.2318736,16.9823682 43.8388517,18.5291977 43.8388517,20.9980589 L43.8388517,21.0350615 Z M61.0286486,12.8453575 L61.0286486,0.446457457 L57.5955589,0.446457457 L57.5955589,18.9295535 C57.5955589,22.0110806 57.3703385,23.2849401 56.8833754,24.4132158 C56.505979,25.2745875 55.7572733,26.0267713 54.929436,26.4028632 C54.0285543,26.857813 53.0546281,27.0027904 51.928526,27.0027904 C51.0276443,27.0027904 50.3154608,26.9299984 49.4876235,26.7061631 C48.8545715,26.5545131 48.3615214,26.3664672 48.0632565,26.2512132 L48.0267343,26.2512132 L48.0267343,29.3630702 C48.4406529,29.5080476 49.0006604,29.6481721 49.6397995,29.7512941 C50.4250275,29.896878 51.4050407,30 52.3059224,30 C53.8398561,30 55.3433546,29.8240861 56.6155457,29.2963442 C57.7051256,28.8353284 59.0321,27.7798447 59.7016742,26.6697671 C60.7303838,24.8620996 61.0286486,23.0968942 61.0286486,18.9295535 L61.0286486,12.8453575 Z M193.034602,13.6654804 C199.291469,2.07335814 199.890433,0.668472986 200,0.370632481 L200,0.297840505 L196.31795,0.297840505 L196.272906,0.370632481 C196.199253,0.590221611 195.375068,2.37059204 192.508682,7.96344225 C191.312579,10.2248463 190.098823,12.5529764 189.251507,14.3703494 L189.179072,14.3703494 C188.298886,12.589979 186.970085,10.1453818 185.853722,7.96344225 C182.870465,2.33480265 182.089498,0.668472986 181.979931,0.370632481 L181.918452,0.297840505 L178.062922,0.297840505 L178.062922,0.370632481 C178.172488,0.668472986 178.843889,2.10975412 185.035624,13.5198965 L187.421744,17.8552653 L187.421744,29.6245147 L190.831094,29.6245147 L190.831094,17.7017955 L193.034602,13.6654804 Z M177.10117,23.3437803 C178.437275,26.7916936 179.46781,29.4479942 179.49155,29.5389841 L179.49155,29.6184487 L183.353167,29.6184487 L183.353167,29.5389841 C183.274644,29.276933 182.597157,27.562682 178.058052,16.4012456 L171.287439,0 L170.835781,0 L163.874644,16.3290602 C159.190667,27.5996846 158.391439,29.3139356 158.317786,29.5389841 L158.317786,29.6184487 L161.947487,29.6184487 L161.947487,29.5389841 L164.460825,23.3437803 L177.10117,23.3437803 Z M170.872303,7.29496927 L170.945956,7.29496927 C171.177872,8.05443222 173.758168,14.7294565 176.021329,20.5728324 L165.583275,20.5728324 C167.93835,14.7294565 170.622734,8.05443222 170.872303,7.29496927 L170.872303,7.29496927 Z" id="Shape" sketch:type="MSShapeGroup"></path>
        </g>
    </g>
</svg>